PathFileType	4	(X/Y/Z)	C:\Users\°ÂÌØÂü\Desktop\20210112\bx_n_10_901-Unnamed.trc
DataRate	CameraRate	NumFrames	NumMarkers	Units	OrigDataRate	OrigDataStartFrame	OrigNumFrames
50.00	50.00	       9	0	mm	50.00	195	       518
Frame#	Time	
		

195	3.880	-745.93201	110.43005	1844.32983	-659.46124	299.73615	156.82744	-597.38885	220.60715	818.25623	-596.12048	-9.48400	807.44550	-813.29407	95.07541	1056.26294	-713.57751	283.40128	1553.78198	-709.80786	271.32172	746.84967	-707.02460	-60.04469	1551.93433	-737.88800	252.43823	644.33844	-668.78857	15.86228	522.60748	-683.87646	209.52444	536.71808	-778.18555	257.92233	503.20334	-517.87292	-72.89797	143.14209	-547.39337	-31.76265	161.97137	-605.24139	-5.50458	1059.85632	-788.84570	44.61202	173.52719	-595.62689	23.43589	169.61430	-668.88892	53.65576	160.79463	-711.72003	155.13060	218.05205	-795.02454	178.87834	183.01674	-767.87622	228.39737	205.04640	-591.36908	220.41602	174.12187	-882.47290	296.27444	144.85796	-554.37817	255.94266	163.86296	-603.57941	110.85266	1363.67700	-623.04858	308.00687	157.90305	-528.11072	304.29047	146.63930	-718.26038	-33.14706	620.17639	-676.03241	-68.81798	877.65833	-767.37036	-39.04906	490.09143	-758.68091	-15.33136	206.80621	-875.95648	-78.79716	141.44162	-697.47589	-57.21143	762.76880	-739.20410	248.70747	577.80670	-713.63123	71.00477	217.83070	-725.37256	-29.98028	571.05005	-673.86664	174.51775	159.58961	-608.00354	-77.48247	155.86647	-649.71045	-69.01322	160.67392				-697.57373	147.26537	577.32349	-704.07294	282.42239	876.58820	-694.87738	74.73553	574.97742	
196	3.900	-746.23950	110.25292	1844.35376	-659.18335	299.71799	157.01567	-597.07190	220.82307	818.33954	-595.88879	-9.50801	807.18933	-812.61548	94.93748	1056.48047	-713.49286	283.32468	1553.92578	-709.37000	271.53802	746.92719	-707.26569	-59.92336	1552.00098	-737.52985	252.48943	644.24756	-668.81799	15.61594	522.42401	-683.81805	209.52936	536.84851	-778.12335	257.84045	502.95209	-517.87292	-72.89797	143.14209	-547.42578	-31.74358	161.93958	-604.53320	-5.41096	1059.40234	-788.96014	44.54994	173.55237	-595.76898	23.21469	169.66217	-668.68591	53.66064	161.06850	-711.72003	155.13060	218.05205	-795.06982	178.86664	182.84651	-767.97137	228.46141	205.26579	-591.34772	220.53607	174.11122	-882.52728	296.23694	144.71747	-554.27673	255.77209	164.11447	-603.58386	110.79723	1363.57153	-623.12354	307.89981	157.61539	-528.24622	304.03519	146.54639	-718.34918	-33.27718	620.08307	-675.32367	-68.92775	877.52350	-767.77435	-39.40891	490.17215	-758.84302	-15.46309	207.06169	-875.95648	-78.79716	141.44162	-697.22009	-57.48312	762.74304	-739.10205	248.87802	577.94812	-713.59100	70.86726	217.63147	-725.34906	-30.36032	570.96490	-673.98041	174.75438	159.35376	-608.15021	-77.51781	155.94456	-649.83533	-69.07341	160.57295				-697.38031	147.12666	577.41937	-703.67664	282.44153	876.62701	-695.10242	74.56483	574.92609	
197	3.920	-746.56000	110.24792	1844.30286	-659.29376	299.70691	156.92676	-596.64874	220.52031	818.13141	-595.29175	-9.52980	807.21649	-812.03265	94.84593	1056.80933	-713.75836	282.95547	1554.20764	-709.11255	271.48230	746.86499	-707.50470	-59.86716	1552.04883	-737.30835	252.49928	644.29071	-669.58417	15.49267	522.31989	-683.71698	209.45206	536.79449	-777.95660	257.94852	502.96393	-517.87463	-72.97088	143.23526	-547.39337	-31.76265	161.97137	-604.04346	-5.04216	1058.90515	-789.04132	44.47464	173.58041	-595.61035	23.42773	169.80293	-668.88892	53.65576	160.79463	-711.72003	155.13060	218.05205	-795.29901	178.81630	183.38185	-768.06348	228.36902	205.09114	-591.32263	220.48402	174.20775	-882.55920	296.25497	144.75124	-554.30078	255.80238	164.06221	-603.57056	110.85432	1363.34094	-622.96228	307.98199	157.60069	-528.18390	304.18793	146.52794	-718.36328	-33.60043	620.27771	-674.87750	-69.29308	877.50287	-767.57227	-39.77251	490.08926	-758.72388	-15.65772	206.57336	-875.95648	-78.79716	141.44162	-696.97119	-57.50674	762.50482	-739.20410	248.70747	577.80670	-713.39935	70.79817	217.67104	-725.34906	-30.36032	570.96490	-673.86664	174.51775	159.58961	-607.97614	-77.53651	156.03722	-649.82599	-69.17979	160.36824				-697.34521	146.98608	577.52167	-703.01605	282.49475	876.75232	-695.10345	74.49361	574.96643	
198	3.940	-746.66656	109.98844	1844.29749	-659.37695	299.71829	156.80730	-596.61627	220.42700	817.85480	-594.99426	-9.55412	807.10614	-811.31671	94.66254	1056.90735	-713.68756	282.75580	1554.40051	-709.04816	271.48926	746.76849	-707.57684	-59.82759	1552.01746	-737.30835	252.49928	644.29071	-669.75934	15.25122	522.14917	-683.71698	209.45206	536.79449	-778.04871	257.75323	502.96951	-517.91754	-72.97007	143.08446	-547.30701	-31.80334	161.89784	-603.18335	-5.32409	1058.85632	-788.97101	44.47716	173.70882	-595.65741	23.60623	169.64134	-668.68591	53.66064	161.06850	-711.89600	155.21265	217.82649	-795.41516	178.86726	183.36888	-767.99561	228.25938	204.98572	-591.36060	220.30316	174.01358	-882.47070	296.11298	144.62279	-554.50488	255.80888	163.93677	-602.89624	110.46153	1363.40015	-623.06805	308.01422	157.76929	-528.17303	304.13773	146.65773	-718.39026	-33.56430	620.24506	-674.32104	-69.04961	877.18591	-767.63300	-39.76377	490.02942	-758.81372	-15.67882	206.73228	-875.95648	-78.79716	141.44162	-696.50012	-57.41290	762.37219	-739.19647	248.65926	577.85181	-713.75781	70.92316	217.88969	-725.35370	-30.40734	570.90344	-673.86664	174.51775	159.58961	-608.08759	-77.47391	155.93079	-649.78217	-69.22512	160.36723				-697.22131	146.87866	577.54626	-702.81158	282.35712	876.66144	-695.20892	74.35289	575.07837	
199	3.960	-746.86041	110.12006	1844.19275	-659.36584	299.81744	156.91901	-596.21857	219.99554	817.54590	-594.70709	-9.63569	806.96075	-811.00702	94.41870	1056.95532	-713.65192	282.52838	1554.48462	-708.77521	271.38593	746.65527	-707.67395	-60.00920	1552.14368	-737.23541	252.13985	644.30804	-669.85730	14.96973	522.41284	-683.68579	209.38406	536.70142	-778.04279	257.87024	503.08081	-517.89331	-72.93929	143.02621	-547.32507	-31.82943	162.16321	-602.84747	-5.35348	1058.73364	-789.04272	44.48326	173.58766	-595.77649	23.25818	169.79243	-668.80310	53.63047	160.92497	-711.74036	155.06265	217.98973	-795.47717	178.81113	183.45702	-767.96735	228.31503	205.06586	-591.26648	220.46530	174.16089	-882.47406	296.15048	144.65424	-554.58911	255.84375	163.98918	-602.39063	110.33086	1363.43518	-623.19482	307.83112	157.62477	-528.10059	304.06805	146.61795	-718.41400	-33.83134	620.23517	-674.02631	-69.16264	876.88879	-768.03998	-39.96313	490.11023	-758.71588	-15.79322	206.51364	-875.95648	-78.79716	141.44162	-696.31799	-57.36800	762.10693	-738.94727	248.63646	577.91107	-713.56616	70.85407	217.92926	-725.42310	-30.55073	571.09143	-673.86664	174.51775	159.58961	-608.00812	-77.58630	155.97075	-649.82025	-69.23228	160.48512				-697.22131	146.87866	577.54626	-702.53253	282.15518	876.71161	-695.42096	74.13943	575.01660	
200	3.980	-746.98914	110.26162	1844.12939	-659.36212	299.88953	157.02525	-595.89172	219.79303	817.58630	-594.30493	-9.75404	806.77301	-810.63861	94.27360	1056.71631	-713.52734	282.26175	1554.53662	-708.48615	271.25870	746.74261	-707.79132	-60.12844	1552.00049	-736.70868	251.82454	644.13562	-669.86780	14.86159	522.18799	-683.26227	208.87157	536.79688	-777.52155	257.33698	502.69797	-517.90527	-72.82031	143.11404	-547.37708	-31.80617	162.12712	-602.51306	-5.69181	1058.97815	-789.00586	44.59612	173.54765	-595.78571	23.26456	169.48853	-668.97534	53.51270	160.93916	-711.74036	155.06265	217.98973	-795.06812	178.89165	183.16081	-768.00067	228.37762	205.19658	-591.34717	220.46744	174.19669	-882.43616	296.14734	144.72641	-554.42603	255.88509	163.81004	-602.39288	110.03650	1363.30847	-623.19513	307.95807	157.78264	-528.30536	304.04300	146.37025	-718.48999	-33.93376	619.97717	-673.38019	-69.20120	876.61761	-768.07452	-40.01698	489.99081	-758.70117	-15.55044	206.56720	-876.01624	-78.73471	141.48239	-696.18079	-57.39633	762.00165	-738.22595	247.72752	577.04840	-713.39935	70.79817	217.67104	-725.55505	-30.81233	570.99158	-673.86664	174.51775	159.58961	-608.00812	-77.58630	155.97075	-649.89362	-69.12110	160.42224				-696.94171	146.57352	577.65680	-702.08118	281.91083	876.60071	-695.42096	74.13943	575.01660	
201	4.000	-746.85364	110.62732	1844.06812	-659.28558	299.74155	157.01627	-595.65472	219.52074	817.38086	-594.27332	-10.06930	806.57892	-809.99384	94.17839	1056.69348	-713.20703	281.98151	1554.39453	-707.68848	270.46307	746.24292	-707.60107	-60.27068	1551.84949	-736.42737	251.77934	644.37604	-669.75299	14.86240	522.24353	-682.99200	208.72292	536.56866	-776.97089	257.58054	503.12332	-517.87292	-72.89797	143.14209	-547.31775	-31.81734	161.99646	-601.71466	-6.22447	1059.16064	-788.96570	44.59392	173.70473	-595.60028	23.32194	169.64232	-668.69159	53.52120	161.25153	-711.74036	155.06265	217.98973	-794.88226	178.50981	183.18361	-767.90649	228.19310	205.13710	-591.26648	220.46530	174.16089	-882.60834	296.06894	144.52896	-554.39868	255.88113	164.02008	-602.28784	109.69640	1363.31616	-623.03113	307.98148	157.69495	-528.14569	304.17987	146.55627	-718.35419	-34.07859	620.01324	-673.02289	-69.17245	876.55896	-768.02032	-40.22345	490.22787	-758.81372	-15.67882	206.73228	-876.08313	-78.85428	141.48308	-695.98163	-57.83884	762.16888	-738.02972	247.97597	577.43420	-713.56616	70.85407	217.92926	-725.53888	-30.97287	571.13995	-673.86664	174.51775	159.58961	-608.00812	-77.58630	155.97075	-650.04089	-69.42947	160.45985				-696.83795	146.66885	577.56073	-701.36163	281.89792	876.56805	-695.33746	73.84760	574.85663	
202	4.020	-746.44537	110.79356	1844.02905	-659.24237	299.48166	156.86981	-594.56000	219.18500	817.55981	-594.20953	-10.21648	806.51331	-809.66327	93.95502	1056.84399	-713.02985	281.50717	1554.71399	-706.95874	270.45801	746.37579	-707.29395	-60.68048	1551.95837	-735.75708	251.81335	644.44037	-669.80493	14.83183	522.22198	-682.43085	208.41379	536.43658	-776.53491	257.60724	503.15363	-517.86597	-72.94848	143.19106	-547.26813	-31.82463	161.93141	-601.55273	-6.21776	1058.99658	-789.04248	44.60170	173.67043	-595.60455	23.30407	169.77879	-668.83514	53.61314	161.15778	-711.74036	155.06265	217.98973	-794.86609	178.40622	183.16364	-767.83826	228.13882	205.20854	-591.28339	220.43382	174.25383	-882.52368	296.21121	144.71040	-554.52051	255.96844	163.97263	-602.13751	109.58021	1363.31689	-623.14874	307.98700	157.72789	-528.29248	303.97745	146.42059	-718.43713	-34.17203	620.00775	-672.83014	-69.60110	876.82416	-768.12170	-40.06996	489.99835	-758.64410	-15.66075	206.49666	-876.05573	-78.76508	141.37221	-695.68726	-58.04688	762.16028	-737.87982	248.01888	577.71460	-713.56616	70.85407	217.92926	-725.77930	-31.22201	570.95428	-673.86664	174.51775	159.58961	-608.17914	-77.49790	155.97453	-649.94305	-69.31190	160.26421				-696.35504	146.56067	577.58057	-700.59637	281.72668	876.52466	-695.73944	73.41196	574.53851	
203	4.040	-746.00897	110.78405	1844.03125	-659.20972	299.77869	156.94954	-594.20459	218.92249	817.82355	-594.03754	-10.31491	806.65393	-809.17029	94.28072	1056.81982	-712.77484	281.30518	1554.85364	-706.67432	270.59134	746.26117	-706.81189	-61.15170	1551.76294	-735.45941	251.93280	644.35767	-669.67365	14.69056	522.52216	-682.12872	208.26926	536.54694	-776.27191	257.51996	503.37149	-517.87292	-72.89797	143.14209	-547.27020	-31.77815	161.88736	-601.35736	-6.34200	1058.91248	-788.98932	44.53106	173.70964	-595.53259	23.30393	169.80640	-668.80310	53.63047	160.92497	-711.74036	155.06265	217.98973	-795.06000	178.69308	183.28139	-767.80994	227.95990	205.19180	-591.37708	220.35130	174.06219	-882.45593	296.22400	144.77756	-554.48987	255.90031	164.01837	-601.69727	109.35494	1363.35278	-623.23688	307.94098	157.69351	-528.06512	304.10474	146.73299	-718.34930	-34.58970	620.27783	-672.48413	-69.80740	876.89868	-768.19867	-40.15743	489.98550	-758.71588	-15.79322	206.51364	-875.93073	-78.79627	141.25227	-695.43134	-58.36449	762.39105	-737.45099	248.49117	577.77679	-713.56616	70.85407	217.92926	-725.77386	-31.27538	570.90118	-673.86664	174.51775	159.58961	-607.91016	-77.47778	156.14247	-649.87762	-69.29303	160.33397				-696.20660	146.63805	577.30511	-700.33038	281.23227	876.28064	-695.64594	73.53765	574.77594	
